<svg width="32" height="32" viewBox="0 0 32 32" fill="none" xmlns="http://www.w3.org/2000/svg">
<rect width="32" height="32" rx="16" fill="#FDEFEF"/>
<path d="M23 7.92493C23.7956 7.92493 24.5587 8.24396 25.1213 8.81186C25.6839 9.37975 26 10.15 26 10.9531V21.047C26 21.8501 25.6839 22.6203 25.1213 23.1882C24.5587 23.7561 23.7956 24.0751 23 24.0751H9C8.20435 24.0751 7.44129 23.7561 6.87868 23.1882C6.31607 22.6203 6 21.8501 6 21.047V10.9531C6 10.15 6.31607 9.37975 6.87868 8.81186C7.44129 8.24396 8.20435 7.92493 9 7.92493H23ZM24 13.9813H8V21.047C8.00003 21.2942 8.08996 21.5328 8.25272 21.7176C8.41547 21.9023 8.63975 22.0204 8.883 22.0493L9 22.0563H23C23.2449 22.0563 23.4813 21.9655 23.6644 21.8013C23.8474 21.637 23.9643 21.4106 23.993 21.1651L24 21.047V13.9813ZM21 17.0094C21.2549 17.0097 21.5 17.1082 21.6854 17.2848C21.8707 17.4614 21.9822 17.7028 21.9972 17.9596C22.0121 18.2165 21.9293 18.4694 21.7657 18.6667C21.6021 18.8639 21.3701 18.9907 21.117 19.0211L21 19.0282H18C17.7451 19.0279 17.5 18.9294 17.3146 18.7528C17.1293 18.5762 17.0178 18.3348 17.0028 18.078C16.9879 17.8211 17.0707 17.5682 17.2343 17.3709C17.3979 17.1737 17.6299 17.0469 17.883 17.0165L18 17.0094H21ZM23 9.9437H9C8.73478 9.9437 8.48043 10.05 8.29289 10.2393C8.10536 10.4286 8 10.6854 8 10.9531V11.9625H24V10.9531C24 10.6854 23.8946 10.4286 23.7071 10.2393C23.5196 10.05 23.2652 9.9437 23 9.9437Z" fill="#E0371D"/>
</svg>
