<svg width="56" height="56" viewBox="0 0 56 56" fill="none" xmlns="http://www.w3.org/2000/svg">
<rect width="56" height="56" rx="28" fill="#FDEFEF"/>
<path d="M27.2 29.6C29.6 29.6 33.6 32.8 33.6 32.8V20C33.6 20 29.6 23.2 27.2 23.2M27.2 29.6V23.2M27.2 29.6H23.2C21.4328 29.6 20 28.8888 20 26.4C20 23.9112 21.4328 23.2 23.2 23.2H27.2M22.4 29.6L24.8 36H28L25.6 29.6M33.6 28.8C33.9152 28.8 34.2273 28.7379 34.5184 28.6173C34.8096 28.4967 35.0742 28.3199 35.2971 28.0971C35.5199 27.8742 35.6967 27.6096 35.8173 27.3184C35.9379 27.0273 36 26.7152 36 26.4C36 26.0848 35.9379 25.7727 35.8173 25.4816C35.6967 25.1904 35.5199 24.9258 35.2971 24.7029C35.0742 24.4801 34.8096 24.3033 34.5184 24.1827C34.2273 24.0621 33.9152 24 33.6 24M27.2 32.8C28 32.8 29.6 32 29.6 30.4" stroke="#E0371D" stroke-width="1.5"/>
</svg>
