<svg width="33" height="32" viewBox="0 0 33 32" fill="none" xmlns="http://www.w3.org/2000/svg">
<rect x="0.5" width="32" height="32" rx="16" fill="#FDEFEF"/>
<path d="M15.7 17.6C18.1 17.6 22.1 20.8 22.1 20.8V8C22.1 8 18.1 11.2 15.7 11.2M15.7 17.6V11.2M15.7 17.6H11.7C9.9328 17.6 8.5 16.8888 8.5 14.4C8.5 11.9112 9.9328 11.2 11.7 11.2H15.7M10.9 17.6L13.3 24H16.5L14.1 17.6M22.1 16.8C22.4152 16.8 22.7273 16.7379 23.0184 16.6173C23.3096 16.4967 23.5742 16.3199 23.7971 16.0971C24.0199 15.8742 24.1967 15.6096 24.3173 15.3184C24.4379 15.0273 24.5 14.7152 24.5 14.4C24.5 14.0848 24.4379 13.7727 24.3173 13.4816C24.1967 13.1904 24.0199 12.9258 23.7971 12.7029C23.5742 12.4801 23.3096 12.3033 23.0184 12.1827C22.7273 12.0621 22.4152 12 22.1 12M15.7 20.8C16.5 20.8 18.1 20 18.1 18.4" stroke="#E0371D" stroke-width="1.5"/>
</svg>
