<svg width="32" height="32" viewBox="0 0 32 32" fill="none" xmlns="http://www.w3.org/2000/svg">
<rect width="32" height="32" rx="16" fill="#FDEFEF"/>
<path d="M21.6971 13.3C23.1389 14.7727 23.1389 17.0636 21.6971 18.6182L22.4981 19.4364C24.5006 17.5545 24.5006 14.4455 22.4981 12.4818L21.6971 13.3ZM20.816 14.2L20.015 15.0182C20.4155 15.5909 20.4155 16.3273 20.015 16.9L20.816 17.7182C21.7772 16.7364 21.7772 15.2636 20.816 14.2ZM17.612 7H9.602C9.17712 7 8.76965 7.1724 8.46922 7.47928C8.16878 7.78616 8 8.20237 8 8.63636V23.3636C8 23.7976 8.16878 24.2138 8.46922 24.5207C8.76965 24.8276 9.17712 25 9.602 25H17.612C18.0369 25 18.4444 24.8276 18.7448 24.5207C19.0452 24.2138 19.214 23.7976 19.214 23.3636V8.63636C19.214 8.20237 19.0452 7.78616 18.7448 7.47928C18.4444 7.1724 18.0369 7 17.612 7ZM17.612 22.5455H9.602V9.45455H17.612V22.5455Z" fill="#E0371D"/>
</svg>
