<svg width="21" height="20" viewBox="0 0 21 20" fill="none" xmlns="http://www.w3.org/2000/svg">
<path d="M8 16C7.45 16 6.97933 15.8043 6.588 15.413C6.19667 15.0217 6.00067 14.5507 6 14V2C6 1.45 6.196 0.979333 6.588 0.588C6.98 0.196667 7.45067 0.000666667 8 0H17C17.55 0 18.021 0.196 18.413 0.588C18.805 0.98 19.0007 1.45067 19 2V14C19 14.55 18.8043 15.021 18.413 15.413C18.0217 15.805 17.5507 16.0007 17 16H8ZM8 14H17V2H8V14ZM4 20C3.45 20 2.97933 19.8043 2.588 19.413C2.19667 19.0217 2.00067 18.5507 2 18V4H4V18H15V20H4Z" fill="white"/>
</svg>
