<svg width="32" height="32" viewBox="0 0 32 32" fill="none" xmlns="http://www.w3.org/2000/svg">
<rect width="32" height="32" rx="16" fill="#FDEFEF"/>
<path fill-rule="evenodd" clip-rule="evenodd" d="M11.5829 8.1601C13.6888 7.24759 16.0062 7.00873 18.2419 7.47375C20.4776 7.93878 22.5311 9.08677 24.1426 10.7725C24.2408 10.8827 24.3593 10.971 24.4908 11.0323C24.6224 11.0936 24.7644 11.1266 24.9085 11.1293C25.0525 11.1319 25.1955 11.1042 25.3291 11.0478C25.4627 10.9914 25.584 10.9074 25.6858 10.801C25.7877 10.6945 25.868 10.5676 25.9219 10.4279C25.9759 10.2883 26.0024 10.1387 25.9998 9.98814C25.9973 9.83755 25.9658 9.68904 25.9071 9.55147C25.8485 9.4139 25.764 9.29008 25.6586 9.18741C24.3895 7.85987 22.8826 6.80678 21.2241 6.08829C19.5657 5.36981 17.788 5 15.9928 5C14.1976 5 12.42 5.36981 10.7616 6.08829C9.10308 6.80678 7.59623 7.85987 6.32709 9.18741C6.22469 9.29091 6.14303 9.41471 6.08688 9.55156C6.03073 9.68842 6.00121 9.8356 6.00004 9.98451C5.99887 10.1334 6.02607 10.2811 6.08007 10.4189C6.13406 10.5567 6.21376 10.6819 6.31452 10.7871C6.41528 10.8924 6.53508 10.9756 6.66692 11.0319C6.79877 11.0883 6.94002 11.1166 7.08245 11.1152C7.22487 11.1138 7.3656 11.0828 7.49644 11.024C7.62728 10.9651 7.7456 10.8796 7.84449 10.7725C8.91446 9.65342 10.1848 8.76572 11.5829 8.1601ZM15.9936 11.4932C14.9518 11.4932 13.9203 11.7086 12.9584 12.1269C11.9965 12.5452 11.1232 13.1582 10.3888 13.9307C10.1881 14.1417 9.91551 14.2607 9.63094 14.2615C9.34637 14.2623 9.07314 14.145 8.87135 13.9352C8.66956 13.7254 8.55575 13.4403 8.55494 13.1428C8.55414 12.8453 8.66641 12.5596 8.86706 12.3486C9.801 11.3665 10.9114 10.5871 12.1344 10.0553C13.3575 9.52346 14.669 9.24967 15.9936 9.24967C17.3181 9.24967 18.6297 9.52346 19.8527 10.0553C21.0757 10.5871 22.1861 11.3665 23.1201 12.3486C23.3207 12.5596 23.433 12.8453 23.4322 13.1428C23.4314 13.4403 23.3176 13.7254 23.1158 13.9352C22.914 14.145 22.6408 14.2623 22.3562 14.2615C22.0716 14.2607 21.799 14.1417 21.5984 13.9307C20.8639 13.1582 19.9906 12.5452 19.0287 12.1269C18.0668 11.7086 17.0353 11.4932 15.9936 11.4932ZM14.592 15.8881C15.2796 15.5847 16.0387 15.5051 16.7702 15.6598C17.5017 15.8146 18.1716 16.1964 18.6923 16.7554C18.8908 16.9686 19.1623 17.0905 19.4468 17.0945C19.7314 17.0984 20.0058 16.9839 20.2097 16.7763C20.4136 16.5687 20.5302 16.2849 20.534 15.9874C20.5377 15.6898 20.4283 15.4029 20.2297 15.1898C19.6842 14.604 19.0319 14.1385 18.3115 13.8206C17.591 13.5027 16.817 13.3389 16.035 13.3389C15.2531 13.3389 14.479 13.5027 13.7586 13.8206C13.0382 14.1385 12.3859 14.604 11.8404 15.1898C11.6416 15.4027 11.5319 15.6895 11.5354 15.9871C11.5389 16.2846 11.6553 16.5685 11.859 16.7763C12.0626 16.9841 12.3369 17.0988 12.6215 17.0952C12.9061 17.0916 13.1776 16.9699 13.3764 16.7569C13.7225 16.386 14.1358 16.0885 14.592 15.8881Z" fill="#E0371D"/>
<path d="M15.0425 24.3711L14.9915 24.3799C14.3404 24.4869 14.0149 24.5408 13.8474 24.3099C13.6804 24.0793 13.7826 23.7175 13.9863 22.9936L14.8173 20.0451C14.952 19.567 15.0196 19.3279 15.1349 19.3425C15.2499 19.3577 15.3003 19.6118 15.4021 20.1201L15.707 21.6536C15.7988 22.1164 15.8452 22.3477 15.9942 22.4707C16.1436 22.5937 16.3391 22.5611 16.7302 22.4968L16.7812 22.4879C17.4324 22.3809 17.7578 22.327 17.9253 22.5579C18.0923 22.7886 17.9902 23.1503 17.786 23.8744L16.9554 26.8227C16.8207 27.3008 16.7531 27.5399 16.6378 27.5253C16.5229 27.5101 16.4724 27.256 16.3707 26.7477L16.0657 25.2142C15.9739 24.7514 15.9276 24.5201 15.7786 24.3971C15.6291 24.2741 15.4337 24.3068 15.0425 24.3711Z" stroke="#E0371D" stroke-width="1.8"/>
</svg>
