<svg width="24" height="24" viewBox="0 0 24 24" fill="none" xmlns="http://www.w3.org/2000/svg">
<path fill-rule="evenodd" clip-rule="evenodd" d="M5.00017 9C5.00017 7.14348 5.73767 5.36301 7.05043 4.05025C8.36318 2.7375 10.1437 2 12.0002 2C13.8567 2 15.6372 2.7375 16.9499 4.05025C18.2627 5.36301 19.0002 7.14348 19.0002 9V12.764L20.8222 16.408C20.906 16.5757 20.9457 16.7621 20.9372 16.9494C20.9288 17.1368 20.8726 17.3188 20.774 17.4783C20.6754 17.6379 20.5377 17.7695 20.3739 17.8608C20.2101 17.9521 20.0257 18 19.8382 18H15.8742C15.6517 18.8582 15.1506 19.6183 14.4494 20.1609C13.7483 20.7035 12.8868 20.9979 12.0002 20.9979C11.1136 20.9979 10.2521 20.7035 9.55091 20.1609C8.84975 19.6183 8.34861 18.8582 8.12617 18H4.16217C3.97465 18 3.79024 17.9521 3.62644 17.8608C3.46265 17.7695 3.32491 17.6379 3.22632 17.4783C3.12773 17.3188 3.07155 17.1368 3.06312 16.9494C3.0547 16.7621 3.0943 16.5757 3.17817 16.408L5.00017 12.764V9ZM10.2682 18C10.4437 18.304 10.6962 18.5565 11.0002 18.732C11.3042 18.9075 11.6491 18.9999 12.0002 18.9999C12.3512 18.9999 12.6961 18.9075 13.0001 18.732C13.3042 18.5565 13.5566 18.304 13.7322 18H10.2682ZM12.0002 4C10.6741 4 9.40232 4.52678 8.46464 5.46447C7.52696 6.40215 7.00017 7.67392 7.00017 9V12.764C7.00015 13.0743 6.92792 13.3804 6.78917 13.658L5.61917 16H18.3822L17.2122 13.658C17.0731 13.3805 17.0005 13.0744 17.0002 12.764V9C17.0002 7.67392 16.4734 6.40215 15.5357 5.46447C14.598 4.52678 13.3263 4 12.0002 4Z" fill="#1A1A1A"/>
<rect x="13" width="10" height="10" rx="5" fill="#E0371D"/>
<path d="M16.2034 7.5C16.2034 7.28667 16.2194 7.08667 16.2514 6.9C16.2887 6.71333 16.3527 6.53467 16.4434 6.364C16.5394 6.19333 16.6727 6.03067 16.8434 5.876C17.014 5.716 17.2354 5.56133 17.5074 5.412C17.6674 5.32133 17.8274 5.236 17.9874 5.156C18.1527 5.076 18.3047 4.99067 18.4434 4.9C18.5874 4.80933 18.702 4.71067 18.7874 4.604C18.8727 4.492 18.9154 4.364 18.9154 4.22C18.9154 4.09733 18.878 3.98 18.8034 3.868C18.734 3.75067 18.6274 3.65733 18.4834 3.588C18.3447 3.51333 18.1714 3.476 17.9634 3.476C17.8034 3.476 17.6567 3.49733 17.5234 3.54C17.3954 3.58267 17.278 3.63867 17.1714 3.708C17.07 3.772 16.9794 3.84133 16.8994 3.916C16.8247 3.98533 16.7607 4.04933 16.7074 4.108L16.2674 3.612C16.31 3.564 16.382 3.5 16.4834 3.42C16.5847 3.33467 16.7127 3.24933 16.8674 3.164C17.022 3.07867 17.2007 3.00667 17.4034 2.948C17.6114 2.884 17.838 2.852 18.0834 2.852C18.414 2.852 18.6967 2.91067 18.9314 3.028C19.1714 3.14 19.3554 3.29467 19.4834 3.492C19.6114 3.684 19.6754 3.9 19.6754 4.14C19.6754 4.348 19.63 4.52933 19.5394 4.684C19.454 4.83867 19.342 4.97467 19.2034 5.092C19.07 5.20933 18.9287 5.31067 18.7794 5.396C18.6354 5.476 18.5047 5.54533 18.3874 5.604C18.1474 5.72133 17.942 5.828 17.7714 5.924C17.6007 6.02 17.4594 6.116 17.3474 6.212C17.2407 6.30267 17.1527 6.39867 17.0834 6.5C17.0194 6.60133 16.9714 6.72133 16.9394 6.86H19.7634V7.5H16.2034Z" fill="white"/>
</svg>
