<svg width="32" height="32" viewBox="0 0 32 32" fill="none" xmlns="http://www.w3.org/2000/svg">
<rect width="32" height="32" rx="16" fill="#FDEFEF"/>
<path d="M20.1838 6.75H11.8158C10.8178 6.75 10.0078 7.583 10.0078 8.61V23.39C10.0078 24.417 10.8178 25.25 11.8158 25.25H20.1838C21.1818 25.25 21.9918 24.417 21.9918 23.39V8.61C21.9918 7.583 21.1818 6.75 20.1838 6.75Z" stroke="#E0371D" stroke-width="1.5" stroke-linecap="round" stroke-linejoin="round"/>
<path d="M14.0029 9.27197H17.9969M15.9999 22.773C16.0708 22.7774 16.1418 22.7672 16.2086 22.7431C16.2754 22.719 16.3365 22.6815 16.3883 22.6329C16.44 22.5843 16.4813 22.5256 16.5094 22.4604C16.5376 22.3952 16.5522 22.325 16.5522 22.254C16.5522 22.183 16.5376 22.1127 16.5094 22.0476C16.4813 21.9824 16.44 21.9237 16.3883 21.8751C16.3365 21.8264 16.2754 21.7889 16.2086 21.7648C16.1418 21.7407 16.0708 21.7306 15.9999 21.735C15.8679 21.7432 15.7439 21.8014 15.6532 21.8979C15.5626 21.9943 15.5122 22.1216 15.5122 22.254C15.5122 22.3863 15.5626 22.5137 15.6532 22.6101C15.7439 22.7065 15.8679 22.7648 15.9999 22.773Z" stroke="#E0371D" stroke-width="1.5" stroke-linecap="round" stroke-linejoin="round"/>
</svg>
