<svg width="16" height="18" viewBox="0 0 16 18" fill="none" xmlns="http://www.w3.org/2000/svg">
<path d="M12.6665 17.3333C11.9721 17.3333 11.3818 17.0902 10.8957 16.6041C10.4096 16.118 10.1665 15.5277 10.1665 14.8333C10.1665 14.75 10.1873 14.5555 10.229 14.25L4.37484 10.8333C4.15262 11.0416 3.89567 11.205 3.604 11.3233C3.31234 11.4416 2.99984 11.5005 2.6665 11.5C1.97206 11.5 1.38178 11.2569 0.895671 10.7708C0.409559 10.2847 0.166504 9.6944 0.166504 8.99996C0.166504 8.30551 0.409559 7.71524 0.895671 7.22913C1.38178 6.74301 1.97206 6.49996 2.6665 6.49996C2.99984 6.49996 3.31234 6.55913 3.604 6.67746C3.89567 6.79579 4.15262 6.95885 4.37484 7.16663L10.229 3.74996C10.2012 3.65274 10.184 3.55913 10.1773 3.46913C10.1707 3.37913 10.1671 3.27829 10.1665 3.16663C10.1665 2.47218 10.4096 1.8819 10.8957 1.39579C11.3818 0.909682 11.9721 0.666626 12.6665 0.666626C13.3609 0.666626 13.9512 0.909682 14.4373 1.39579C14.9234 1.8819 15.1665 2.47218 15.1665 3.16663C15.1665 3.86107 14.9234 4.45135 14.4373 4.93746C13.9512 5.42357 13.3609 5.66663 12.6665 5.66663C12.3332 5.66663 12.0207 5.60746 11.729 5.48913C11.4373 5.37079 11.1804 5.20774 10.9582 4.99996L5.104 8.41663C5.13178 8.51385 5.14928 8.60774 5.1565 8.69829C5.16373 8.78885 5.16706 8.8894 5.1665 8.99996C5.16595 9.11051 5.16261 9.21135 5.1565 9.30246C5.15039 9.39357 5.13289 9.48718 5.104 9.58329L10.9582 13C11.1804 12.7916 11.4373 12.6286 11.729 12.5108C12.0207 12.393 12.3332 12.3338 12.6665 12.3333C13.3609 12.3333 13.9512 12.5763 14.4373 13.0625C14.9234 13.5486 15.1665 14.1388 15.1665 14.8333C15.1665 15.5277 14.9234 16.118 14.4373 16.6041C13.9512 17.0902 13.3609 17.3333 12.6665 17.3333Z" fill="#E0371D"/>
</svg>
